<svg xmlns="http://www.w3.org/2000/svg" width="1600" height="1120" viewBox="0 0 1600 1120">
<title>Current MikroTik and VDS tunnel topology — 2026-10-05</title>
<desc>Thirteen WireGuard, four SSTP and three L2TP links. Nodes repeat between protocol panels. All Linux WireGuard interfaces are wg0.</desc>
<defs><style>
text{font-family:Arial,Helvetica,sans-serif;fill:#182b45} .title{font-size:30px;font-weight:bold}.heading{font-size:21px;font-weight:bold}.label{font-size:18px;font-weight:bold}.detail{font-size:15px;fill:#51647c}.small{font-size:14px;fill:#51647c}.node{fill:#fff;stroke:#acbed4;stroke-width:1.5}.panel{fill:#f4f7fb;stroke:#dce5ef}.wg{fill:none;stroke:#367bce;stroke-width:3}.sstp{fill:none;stroke:#dd892c;stroke-width:3}.l2tp{fill:none;stroke:#219675;stroke-width:3;stroke-dasharray:9 5}.lan{fill:none;stroke:#7e8ba0;stroke-width:2}
</style></defs>
<rect width="1600" height="1120" fill="#fff"/>
<text x="45" y="53" class="title">MikroTik ↔ VDS · Current tunnel topology</text>
<text x="45" y="83" class="detail">2026-10-05 deployment · Protocol panels repeat nodes for clarity · Retired tunnels omitted</text>
<rect x="30" y="110" width="1540" height="450" rx="18" class="panel"/>
<text x="55" y="146" class="heading">WireGuard · 13 links · 10.250.1.0/24</text>
<text x="55" y="173" class="detail">Every site router connects to both hubs. CHR connects to all five Linux VDSes.</text>
<!-- Eight site-to-hub links, two CHR-to-hub links and three CHR-to-leaf links. -->
<g class="wg">
<path d="M305 225 L520 275 M305 225 L520 435 M305 305 L520 275 M305 305 L520 435 M305 385 L520 275 M305 385 L520 435 M305 465 L520 275 M305 465 L520 435"/>
<path d="M750 275 L940 355 M750 435 L940 355 M1170 355 L1320 225 M1170 355 L1320 355 M1170 355 L1320 485"/>
</g>
<g><rect x="65" y="195" width="240" height="60" rx="10" class="node"/><text x="82" y="220" class="label">K16_112</text><text x="82" y="243" class="detail">10.250.1.112/24</text>
<rect x="65" y="275" width="240" height="60" rx="10" class="node"/><text x="82" y="300" class="label">3Ekipazhnyi64</text><text x="82" y="323" class="detail">10.250.1.64/24</text>
<rect x="65" y="355" width="240" height="60" rx="10" class="node"/><text x="82" y="380" class="label">k16_21</text><text x="82" y="403" class="detail">10.250.1.21/24</text>
<rect x="65" y="435" width="240" height="60" rx="10" class="node"/><text x="82" y="460" class="label">Misha</text><text x="82" y="483" class="detail">10.250.1.24/24</text>
<rect x="520" y="235" width="230" height="80" rx="10" class="node"/><text x="539" y="261" class="label">vds1 · wg0</text><text x="539" y="284" class="detail">10.250.1.1/24</text><text x="539" y="306" class="small">OSPF cost 1000</text>
<rect x="520" y="395" width="230" height="80" rx="10" class="node"/><text x="539" y="421" class="label">vds8 · wg0</text><text x="539" y="444" class="detail">10.250.1.8/24</text><text x="539" y="466" class="small">OSPF cost 30000</text>
<rect x="940" y="310" width="230" height="90" rx="10" class="node"/><text x="959" y="338" class="label">vds7_CHR</text><text x="959" y="362" class="detail">10.250.1.7/24</text><text x="959" y="386" class="small">Separate interface per VDS</text>
<rect x="1320" y="190" width="215" height="70" rx="10" class="node"/><text x="1337" y="217" class="label">vds2 · wg0</text><text x="1337" y="244" class="detail">10.250.1.2/24</text>
<rect x="1320" y="320" width="215" height="70" rx="10" class="node"/><text x="1337" y="347" class="label">vds5 · wg0</text><text x="1337" y="374" class="detail">10.250.1.5/24</text>
<rect x="1320" y="450" width="215" height="70" rx="10" class="node"/><text x="1337" y="477" class="label">vds6 · wg0</text><text x="1337" y="504" class="detail">10.250.1.6/24</text></g>
<text x="65" y="537" class="small">MTU 1420; CHR ↔ vds5/vds6 MTU 1340. Leaf VDS OSPF cost: 1000.</text>
<rect x="30" y="580" width="755" height="320" rx="18" class="panel"/>
<text x="55" y="617" class="heading">SSTP · 4 links · OSPF cost 10</text>
<g class="sstp"><path d="M325 670 L515 755 M325 725 L515 755 M325 780 L515 755 M325 835 L515 755"/></g>
<g><rect x="65" y="649" width="260" height="43" rx="8" class="node"/><text x="78" y="677" class="detail">K16_112 · 10.250.0.112</text>
<rect x="65" y="704" width="260" height="43" rx="8" class="node"/><text x="78" y="732" class="detail">3Ekipazhnyi64 · 10.250.0.64</text>
<rect x="65" y="759" width="260" height="43" rx="8" class="node"/><text x="78" y="787" class="detail">k16_21 · 10.250.0.21</text>
<rect x="65" y="814" width="260" height="43" rx="8" class="node"/><text x="78" y="842" class="detail">Misha · 10.250.0.24</text>
<rect x="515" y="707" width="240" height="96" rx="10" class="node"/><text x="532" y="736" class="label">vds7_CHR</text><text x="532" y="762" class="detail">PPP endpoint 10.251.0.7</text><text x="532" y="787" class="small">62.60.216.73:443</text></g>
<text x="65" y="883" class="small">Client transport addresses: /32 · Separate 10.250.0.0/24 pool</text>
<rect x="805" y="580" width="765" height="320" rx="18" class="panel"/>
<text x="830" y="617" class="heading">L2TP · 3 links · OSPF cost 100</text>
<g class="l2tp"><path d="M1110 690 L1310 755 M1110 755 L1310 755 M1110 820 L1310 755"/></g>
<g><rect x="840" y="669" width="270" height="43" rx="8" class="node"/><text x="853" y="697" class="detail">3Ekipazhnyi64 · 10.250.3.64</text>
<rect x="840" y="734" width="270" height="43" rx="8" class="node"/><text x="853" y="762" class="detail">k16_21 · 10.250.3.21</text>
<rect x="840" y="799" width="270" height="43" rx="8" class="node"/><text x="853" y="827" class="detail">Misha · 10.250.3.24</text>
<rect x="1310" y="707" width="230" height="96" rx="10" class="node"/><text x="1327" y="736" class="label">K16_112</text><text x="1327" y="762" class="detail">10.250.3.112/32</text><text x="1327" y="787" class="small">86.110.170.70</text></g>
<text x="840" y="883" class="small">Client transport addresses: /32 · Separate 10.250.3.0/24 pool</text>
<rect x="30" y="920" width="1540" height="125" rx="18" class="panel"/>
<text x="55" y="954" class="heading">K16 LANs · Routed internal traffic, no source NAT within 10.0.0.0/8</text>
<text x="55" y="984" class="detail">Main: 10.9.0.0/24 · Kubernetes: 10.9.1.0/24 · Gateway: K16_112</text>
<text x="55" y="1013" class="detail">LAN-only: Logia_Kitchen 10.9.0.2 · Logia_SouthRoom 10.9.0.3 · vds3 10.9.0.120 (no WireGuard)</text>
<text x="45" y="1082" class="small">Loopbacks: 10.255.0.N/32, using each node's transport suffix. Blue = WireGuard · Orange = SSTP · Dashed green = L2TP.</text>
</svg>
